<svg xmlns="http://www.w3.org/2000/svg" viewBox="0 0 750 420" width="100%">
  <defs>
    <linearGradient id="panelAccent" x1="0%" y1="0%" x2="100%" y2="100%">
      <stop offset="0%" stop-color="#66f0de"/>
      <stop offset="100%" stop-color="#33d7c6"/>
    </linearGradient>
    <filter id="softGlow" x="-20%" y="-20%" width="140%" height="140%">
      <feGaussianBlur in="SourceGraphic" stdDeviation="4" result="blur"/>
      <feMerge>
        <feMergeNode in="blur"/>
        <feMergeNode in="SourceGraphic"/>
      </feMerge>
    </filter>
    <marker id="flowArrow" markerWidth="10" markerHeight="10" refX="8" refY="5" orient="auto">
      <path d="M0 0 L10 5 L0 10 Z" fill="#4ee0cf"/>
    </marker>
  </defs>

  <rect x="20" y="20" width="710" height="380" fill="#0b1014" stroke="#1d232b" stroke-width="2"/>

  <g stroke="#1d232b" stroke-width="1" opacity="0.65">
    <path d="M60 20 V400"/>
    <path d="M120 20 V400"/>
    <path d="M180 20 V400"/>
    <path d="M240 20 V400"/>
    <path d="M300 20 V400"/>
    <path d="M360 20 V400"/>
    <path d="M420 20 V400"/>
    <path d="M480 20 V400"/>
    <path d="M540 20 V400"/>
    <path d="M600 20 V400"/>
    <path d="M660 20 V400"/>
    <path d="M20 90 H730"/>
    <path d="M20 160 H730"/>
    <path d="M20 230 H730"/>
    <path d="M20 300 H730"/>
  </g>

  <g fill="none" stroke="#4ee0cf" stroke-width="3" opacity="0.9">
    <path d="M30 30 H96"/>
    <path d="M30 30 V96"/>
    <path d="M720 30 H654"/>
    <path d="M720 30 V96"/>
    <path d="M30 390 H96"/>
    <path d="M30 390 V324"/>
    <path d="M720 390 H654"/>
    <path d="M720 390 V324"/>
  </g>

  <g fill="#dbd4c3" font-family="IBM Plex Mono, SFMono-Regular, Consolas, monospace">
    <text x="44" y="56" font-size="18" letter-spacing="1.5">MILLRACE RUNTIME LIFECYCLE</text>
    <text x="44" y="78" font-size="12" fill="#8b8578">compile, persist, stage, recover, close</text>
  </g>

  <g fill="#121821" stroke="#313945" stroke-width="2">
    <rect x="40" y="152" width="100" height="76"/>
    <rect x="160" y="152" width="110" height="76"/>
    <rect x="290" y="140" width="120" height="100"/>
    <rect x="430" y="132" width="130" height="116"/>
    <rect x="580" y="152" width="130" height="76"/>
    <rect x="290" y="274" width="120" height="72"/>
    <rect x="430" y="270" width="130" height="82"/>
  </g>

  <g fill="none" stroke="url(#panelAccent)" stroke-width="4" marker-end="url(#flowArrow)" filter="url(#softGlow)">
    <path d="M140 190 H160"/>
    <path d="M270 190 H290"/>
    <path d="M410 190 H430"/>
    <path d="M560 190 H580"/>
    <path d="M495 248 V270"/>
    <path d="M430 311 H350 V240"/>
  </g>

  <g fill="#dbd4c3" font-family="IBM Plex Mono, SFMono-Regular, Consolas, monospace">
    <text x="52" y="173" font-size="14" letter-spacing="1">INTAKE</text>
    <text x="52" y="194" font-size="12" fill="#8b8578">ideas</text>
    <text x="52" y="210" font-size="12" fill="#8b8578">tasks</text>
    <text x="52" y="226" font-size="12" fill="#8b8578">specs</text>

    <text x="172" y="173" font-size="14" letter-spacing="1">COMPILE</text>
    <text x="172" y="194" font-size="12" fill="#8b8578">mode plus loops</text>
    <text x="172" y="210" font-size="12" fill="#8b8578">freeze run plan</text>

    <text x="302" y="161" font-size="14" letter-spacing="1">QUEUE / STATE</text>
    <text x="302" y="184" font-size="12" fill="#8b8578">durable work docs</text>
    <text x="302" y="200" font-size="12" fill="#8b8578">runtime snapshot</text>
    <text x="302" y="216" font-size="12" fill="#8b8578">handoff history</text>
    <text x="302" y="232" font-size="12" fill="#8b8578">control surface</text>

    <text x="442" y="153" font-size="14" letter-spacing="1">STAGE RUNS</text>
    <text x="442" y="176" font-size="12" fill="#8b8578">planner / builder</text>
    <text x="442" y="192" font-size="12" fill="#8b8578">checker / updater</text>
    <text x="442" y="208" font-size="12" fill="#8b8578">qa-style stages</text>
    <text x="442" y="224" font-size="12" fill="#8b8578">raw harness adapter</text>

    <text x="592" y="173" font-size="14" letter-spacing="1">ARBITER</text>
    <text x="592" y="194" font-size="12" fill="#8b8578">close clean</text>
    <text x="592" y="210" font-size="12" fill="#8b8578">or remediate</text>

    <text x="302" y="295" font-size="14" letter-spacing="1">RUN ARTIFACTS</text>
    <text x="302" y="316" font-size="12" fill="#8b8578">prompt / stdout</text>
    <text x="302" y="332" font-size="12" fill="#8b8578">stderr / completion</text>

    <text x="442" y="291" font-size="14" letter-spacing="1">RECOVERY PATHS</text>
    <text x="442" y="312" font-size="12" fill="#8b8578">fixer / troubleshoot</text>
    <text x="442" y="328" font-size="12" fill="#8b8578">mechanic / consult</text>
  </g>
</svg>
